<svg version="1" xmlns="http://www.w3.org/2000/svg" width="600" height="600" viewBox="0 0 450.000000 450.000000"><path d="M420.9 82.5c-3.7 3.6-6.5 6.5-6.4 6.5.2 0-3.4 3.5-8 7.7-4.5 4.3-8.4 8.2-8.4 8.8-.1.5-2 2.5-4.3 4.2-2.2 1.8-3.8 3.3-3.5 3.3.3 0-3.2 3.5-7.8 7.7-4.5 4.3-8.4 8.2-8.5 8.8-.1.5-5.8 6.3-12.5 12.7-6.7 6.5-12.1 11.8-11.9 11.8.1 0-3.5 3.6-8.1 8s-8.1 8-7.8 8c.3 0-1.4 1.6-3.7 3.5-2.3 1.9-4 3.5-3.8 3.5.2 0-3.4 3.8-8.1 8.5-4.6 4.7-8.7 8.5-9 8.5-.4 0-1.2 1-2 2.2-1.2 2-1.5 2.1-2 .6-.3-1-.6-27.8-.5-59.8 0-31.9-.3-58-.6-58s-6.6 6.1-13.9 13.5c-7.4 7.4-13.7 13.5-14 13.5-.3 0-1.5 1.4-2.6 3s-2.6 3-3.3 3c-.7 0-1.2.3-1 .7.2.5-4.3 5.3-9.9 10.9-5.7 5.5-10.3 9.9-10.3 9.8 0-.1-5.4 5.4-12 12.1-6.6 6.7-12 12.1-12 11.9 0-.1-3.6 3.5-8 8.1-4.3 4.5-8.2 8-8.5 7.7-.3-.3-.5-.1-.5.5s-1.6 2.7-3.5 4.6c-1.9 1.9-3.5 3.3-3.5 3 0-.2-.6.2-1.2.9-3.5 3.9-23 23.7-23.4 23.7-.2.1-.3.4-.1.7.1.3-.9 1.2-2.3 1.9-1.4.8-2.2 1.4-1.9 1.5.4 0-3 3.5-7.5 7.7-4.4 4.3-8.4 8.2-8.8 8.8-2 2.8-26.9 27.1-27.3 26.7-.3-.3-.5.2-.5 1.2 0 .9-.3 1.5-.7 1.3-.8-.5-3.4 1.7-3 2.4.1.2-6 6.5-13.6 13.9-7.5 7.5-13.7 13.5-13.7 13.4 0-.2-3.5 3.4-7.8 7.9s-8.3 8.4-8.8 8.7c-.5.3-.9.7-.8 1 0 .3-1.5 1.9-3.3 3.7-1.8 1.7-3.3 3-3.3 2.8 0-.1-5.4 5.3-12 12s-12.2 12-12.5 11.7c-.3-.3-.5-.1-.5.5 0 1-6.6 8.2-7.2 7.9-.2-.1-3 2.6-6.4 6.1-3.3 3.5-6 6.3-5.9 6.3.1 0-5 5.1-11.2 11.3L5.9 376.6h149.5c82.2 0 149.2-.4 149-.8-.7-1.1-4.5-1 63.1-1.2l60-.1V225.2c.1-82 .1-149.2 0-149.2 0 0-3 3-6.6 6.5z"/></svg>